<?xml version="1.0" encoding="utf-8"?>
<!-- Generator: Adobe Illustrator 16.0.4, SVG Export Plug-In . SVG Version: 6.00 Build 0)  -->
<!DOCTYPE svg PUBLIC "-//W3C//DTD SVG 1.1//EN" "http://www.w3.org/Graphics/SVG/1.1/DTD/svg11.dtd">
<svg version="1.1" id="Layer_1" xmlns="http://www.w3.org/2000/svg" xmlns:xlink="http://www.w3.org/1999/xlink" x="0px" y="0px"
	 width="267px" height="267px" viewBox="0 0 267 267" enable-background="new 0 0 267 267" xml:space="preserve">
<rect id="_x3C_Slice_x3E_" fill="none" width="267" height="267"/>
<path id="Blue_1_" fill="#3C5A99" d="M251.163,265.895c8.134,0,14.729-6.596,14.729-14.73V13.73c0-8.137-6.596-14.73-14.729-14.73
	H13.73C5.593-1-1,5.594-1,13.73v237.434c0,8.135,6.593,14.73,14.73,14.73H251.163z"/>
<path id="f" fill="#FFFFFF" d="M183.151,265.895V162.539h34.692l5.194-40.28h-39.887V96.542c0-11.662,3.238-19.609,19.962-19.609
	l21.33-0.01V40.897c-3.69-0.49-16.352-1.587-31.081-1.587c-30.753,0-51.806,18.771-51.806,53.244v29.705h-34.782v40.28h34.782
	v103.355H183.151z"/>
<g>
</g>
<g>
</g>
<g>
</g>
<g>
</g>
<g>
</g>
<g>
</g>
</svg>
