<?xml version="1.0" encoding="utf-8"?>
<!-- Generator: Adobe Illustrator 16.0.4, SVG Export Plug-In . SVG Version: 6.00 Build 0)  -->
<!DOCTYPE svg PUBLIC "-//W3C//DTD SVG 1.1//EN" "http://www.w3.org/Graphics/SVG/1.1/DTD/svg11.dtd">
<svg version="1.1" id="Layer_1" xmlns="http://www.w3.org/2000/svg" xmlns:xlink="http://www.w3.org/1999/xlink" x="0px" y="0px"
	 width="345.639px" height="493.2px" viewBox="0 0 345.639 493.2" enable-background="new 0 0 345.639 493.2" xml:space="preserve">
<rect fill="#FFD914" width="345.639" height="493.2"/>
<g>
	<defs>
		<rect id="SVGID_1_" width="345.639" height="493.2"/>
	</defs>
	<clipPath id="SVGID_2_">
		<use xlink:href="#SVGID_1_"  overflow="visible"/>
	</clipPath>
	<path clip-path="url(#SVGID_2_)" fill="#A23716" d="M92.294,369.291c-0.185-0.641-0.436-1.987-0.755-4.047
		c-0.321-2.056-0.709-4.432-1.166-7.13c-0.458-2.696-0.937-5.554-1.438-8.572c-0.505-3.016-0.984-5.804-1.441-8.364
		c-2.926,0.274-6.308,0.596-10.148,0.96c-3.84,0.366-7.269,0.642-10.285,0.823c-0.274,1.189-0.549,2.766-0.824,4.731
		c-0.273,1.967-0.547,3.908-0.822,5.828c-0.275,1.919-0.527,3.682-0.754,5.279c-0.229,1.601-0.391,2.674-0.48,3.223H41.143
		c0.364-2.468,1.05-6.284,2.056-11.451c1.006-5.164,2.194-10.971,3.566-17.416c1.371-6.446,2.833-13.211,4.389-20.296
		c1.554-7.084,3.061-13.736,4.525-19.954c1.461-6.216,2.764-11.702,3.909-16.456c1.142-4.753,1.988-8.044,2.537-9.874h6.24
		c3.154,0,6.536,0.023,10.147,0.069c3.611,0.046,6.972,0.068,10.08,0.068h6.034c0.275,1.28,0.799,3.681,1.578,7.199
		c0.774,3.521,1.689,7.679,2.742,12.479c1.05,4.799,2.216,10.08,3.496,15.839c1.281,5.761,2.56,11.589,3.84,17.485
		c1.279,5.896,2.538,11.656,3.772,17.279c1.234,5.622,2.331,10.697,3.291,15.223c0.961,4.524,1.759,8.319,2.401,11.383
		c0.637,3.061,1.004,4.958,1.097,5.69H92.294z M70.765,325.682c2.283,0.093,4.615,0.161,6.994,0.206
		c2.376,0.046,4.662,0.114,6.856,0.206c-0.64-3.2-1.281-6.354-1.919-9.465c-0.642-3.105-1.258-6.055-1.852-8.844
		c-0.596-2.788-1.166-5.349-1.714-7.68c-0.549-2.331-1.007-4.273-1.371-5.828c-0.368,1.644-0.802,3.634-1.303,5.965
		c-0.505,2.331-1.076,4.893-1.715,7.68c-0.64,2.79-1.303,5.691-1.988,8.707C72.067,319.647,71.401,322.663,70.765,325.682"/>
	<path clip-path="url(#SVGID_2_)" fill="#A23716" d="M224.919,315.76c-1.282,0.093-39.485,0.23-43.003,0.412
		c-3.521,0.183-7.611,0.366-12.274,0.548c-0.274,4.114-0.528,8.571-0.755,13.371c-0.228,4.799-0.479,9.623-0.754,14.467
		c-0.274,4.849-0.549,9.624-0.822,14.331c-0.275,4.71-0.505,9.076-0.687,13.098c-0.183,4.023-0.365,7.59-0.547,10.696
		c-0.185,3.109-0.323,5.485-0.412,7.131h-22.492c0.091-2.01,0.115-5.644,0.069-10.901c-0.046-5.257-0.136-11.315-0.273-18.171
		c-0.137-6.856-0.299-14.057-0.481-21.6c-0.183-7.543-0.32-14.604-0.412-21.188c-4.937,0.185-9.142,0.343-12.615,0.479
		c-3.476,0.139-5.578,0.253-6.309,0.344v-24.273c1.187-0.091,3.404-0.137,6.652-0.137c3.243,0,7.015-0.022,11.313-0.068
		c4.297-0.045,8.89-0.069,13.783-0.069h14.056c4.478,0,8.524,0.024,12.136,0.069c3.61,0.046,42.088,0.114,43.827,0.205V315.76z"/>
	<path clip-path="url(#SVGID_2_)" fill="#A23716" d="M33.22,378.069c1.739-0.091,4.413-0.16,8.023-0.206
		c3.612-0.045,7.658-0.069,12.137-0.069h14.056c4.892,0,9.486,0.024,13.783,0.069c4.298,0.046,8.07,0.069,11.313,0.069
		c3.247,0,33.615,0.046,34.802,0.137v24.273c-0.732-0.092-30.983-0.206-34.459-0.344c-3.473-0.137-7.679-0.295-12.616-0.48
		c-0.091,6.584-0.228,13.646-0.412,21.188c-0.182,7.543-0.343,14.742-0.48,21.6c-0.138,6.855-0.227,12.914-0.273,18.17
		c-0.047,5.258-0.023,8.892,0.068,10.902H56.671c-0.09-1.646-0.227-4.022-0.412-7.131c-0.182-3.107-0.364-6.673-0.548-10.696
		c-0.182-4.022-0.412-8.388-0.686-13.099c-0.273-4.707-0.548-9.482-0.823-14.33c-0.274-4.845-0.525-9.668-0.753-14.468
		c-0.227-4.8-0.481-9.256-0.755-13.371c-4.663-0.182-8.754-0.364-12.274-0.548c-3.518-0.182-5.918-0.319-7.2-0.411V378.069z"/>
	<path clip-path="url(#SVGID_2_)" fill="#A23716" d="M175.339,486.591c-0.185-0.496-0.436-1.541-0.755-3.137
		c-0.321-1.594-0.709-3.435-1.166-5.525c-0.458-2.089-0.937-4.305-1.438-6.644c-0.505-2.337-0.984-4.498-1.441-6.482
		c-2.926,0.213-6.308,0.462-10.148,0.744c-3.84,0.284-7.269,0.497-10.285,0.638c-0.274,0.922-0.549,2.144-0.824,3.667
		c-0.273,1.524-0.547,3.029-0.822,4.517s-0.527,2.854-0.754,4.093c-0.229,1.239-0.391,2.07-0.48,2.496h-23.039
		c0.364-1.912,1.05-4.87,2.056-8.875c1.006-4.002,2.194-8.502,3.566-13.496c1.371-4.995,2.833-10.238,4.389-15.729
		c1.554-5.49,3.061-10.645,4.525-15.464c1.461-4.817,2.764-9.069,3.909-12.753c1.142-3.685,1.988-6.234,2.537-7.652h6.24
		c3.154,0,6.536,0.018,10.147,0.053c3.611,0.036,6.972,0.054,10.08,0.054h6.034c0.275,0.993,0.799,2.853,1.578,5.58
		c0.773,2.728,1.688,5.95,2.742,9.67c1.05,3.72,2.216,7.812,3.496,12.275s2.56,8.981,3.84,13.552
		c1.278,4.569,2.538,9.032,3.771,13.391c1.234,4.357,2.331,8.29,3.291,11.797c0.961,3.507,1.759,6.448,2.401,8.822
		c0.637,2.372,1.004,3.842,1.097,4.41H175.339z M153.809,452.794c2.283,0.071,4.615,0.125,6.994,0.159
		c2.376,0.035,4.662,0.09,6.856,0.159c-0.64-2.479-1.281-4.924-1.919-7.334c-0.642-2.407-1.258-4.691-1.852-6.854
		c-0.596-2.161-1.166-4.146-1.714-5.952c-0.549-1.808-1.007-3.312-1.371-4.518c-0.368,1.275-0.802,2.817-1.303,4.623
		c-0.505,1.808-1.076,3.792-1.715,5.952c-0.64,2.162-1.303,4.41-1.988,6.748C155.112,448.117,154.446,450.454,153.809,452.794"/>
	<polygon clip-path="url(#SVGID_2_)" fill="#333332" points="123.655,286.155 123.655,268.026 127.314,268.026 127.314,275.161 
		134.488,275.161 134.488,268.026 138.148,268.026 138.148,286.155 134.488,286.155 134.488,278.229 127.314,278.229 
		127.314,286.155 	"/>
	<path clip-path="url(#SVGID_2_)" fill="#333332" d="M141.19,277.202c0-1.848,0.276-3.396,0.828-4.65
		c0.413-0.923,0.975-1.751,1.688-2.484c0.713-0.734,1.494-1.278,2.344-1.633c1.129-0.478,2.431-0.717,3.907-0.717
		c2.671,0,4.807,0.828,6.412,2.485c1.604,1.657,2.404,3.961,2.404,6.912c0,2.927-0.795,5.217-2.386,6.87
		c-1.592,1.652-3.718,2.479-6.381,2.479c-2.695,0-4.839-0.823-6.43-2.468S141.19,280.088,141.19,277.202 M144.961,277.078
		c0,2.053,0.474,3.609,1.423,4.669c0.948,1.059,2.151,1.589,3.61,1.589c1.46,0,2.656-0.526,3.593-1.578
		c0.935-1.051,1.404-2.627,1.404-4.729c0-2.077-0.456-3.627-1.367-4.65c-0.912-1.022-2.121-1.533-3.63-1.533
		c-1.509,0-2.724,0.519-3.648,1.552C145.423,273.433,144.961,274.994,144.961,277.078"/>
	<path clip-path="url(#SVGID_2_)" fill="#333332" d="M160.704,280.257l3.561-0.347c0.214,1.196,0.649,2.074,1.304,2.634
		c0.656,0.562,1.54,0.841,2.653,0.841c1.179,0,2.067-0.249,2.665-0.748c0.598-0.498,0.896-1.083,0.896-1.749
		c0-0.43-0.125-0.795-0.377-1.095c-0.251-0.301-0.691-0.562-1.317-0.786c-0.429-0.147-1.405-0.411-2.931-0.79
		c-1.962-0.487-3.338-1.085-4.13-1.794c-1.113-0.997-1.669-2.214-1.669-3.647c0-0.923,0.262-1.787,0.786-2.591
		c0.522-0.804,1.276-1.415,2.262-1.837c0.985-0.42,2.174-0.631,3.567-0.631c2.275,0,3.988,0.499,5.14,1.497
		c1.149,0.997,1.754,2.329,1.812,3.994l-3.661,0.16c-0.157-0.931-0.492-1.601-1.008-2.009c-0.515-0.408-1.289-0.612-2.319-0.612
		c-1.063,0-1.896,0.219-2.497,0.655c-0.388,0.28-0.582,0.654-0.582,1.126c0,0.428,0.182,0.795,0.545,1.1
		c0.461,0.388,1.582,0.792,3.363,1.212c1.781,0.421,3.098,0.855,3.951,1.306c0.854,0.448,1.522,1.062,2.003,1.842
		c0.482,0.778,0.723,1.743,0.723,2.888c0,1.038-0.286,2.012-0.864,2.918c-0.577,0.907-1.394,1.58-2.448,2.022
		c-1.055,0.44-2.371,0.661-3.945,0.661c-2.292,0-4.052-0.529-5.281-1.59C161.676,283.828,160.943,282.284,160.704,280.257"/>
	<polygon clip-path="url(#SVGID_2_)" fill="#333332" points="182.604,286.155 182.604,271.093 177.224,271.093 177.224,268.026 
		191.63,268.026 191.63,271.093 186.264,271.093 186.264,286.155 	"/>
	<polygon clip-path="url(#SVGID_2_)" fill="#333332" points="193.993,286.155 193.993,268.026 207.435,268.026 207.435,271.093 
		197.652,271.093 197.652,275.112 206.754,275.112 206.754,278.166 197.652,278.166 197.652,283.102 207.779,283.102 
		207.779,286.155 	"/>
	<polygon clip-path="url(#SVGID_2_)" fill="#333332" points="210.982,286.155 210.982,268.175 214.643,268.175 214.643,283.102 
		223.744,283.102 223.744,286.155 	"/>
	<rect x="36.871" y="260.521" clip-path="url(#SVGID_2_)" fill="#A23716" width="74.552" height="21.054"/>
	<rect x="128.885" y="400.498" clip-path="url(#SVGID_2_)" fill="#A23716" width="74.552" height="19.891"/>
	<path clip-path="url(#SVGID_2_)" fill="#333332" d="M224.769,487.211c0.66-18.938,22.375-34.289,48.501-34.289
		c26.125,0,46.769,15.352,46.108,34.289"/>
	<path clip-path="url(#SVGID_2_)" fill="#333332" d="M330.033,63.917c-9.744-1.89-19.469-3.88-29.238-5.65
		c-22.041-3.992-43.449-1.712-63.94,9.025c-0.45,0.236-0.855,0.56-2.023,1.335c4.729-0.901,8.611-1.782,12.526-2.361
		c13.092-1.936,25.226,1.119,36.913,6.191c10.026,5.776,6.229,1.308,23.038,14.45c8.834,6.907,17.079,18.55,25.753,27.778
		c0.554,0.59,4.441,5.016,4.606,5.955c-8.058-6.049-9.687-6.599-17.83-12.53c-19.575-14.253-21.326-12.955-45.458-18.128
		c-6.846-1.467-13.8-2.582-20.773-3.403c-6.072-0.715-12.241-0.787-18.288-1.139c6.721,2.274,13.693,3.899,19.976,6.899
		c16.623,7.938,26.263,22.19,32.486,39.016c6.273,16.955,8.8,34.788,9.889,52.941c1.739,29.022-0.518,58.011-3.82,87.084
		c-0.198-2.114-0.413-4.227-0.59-6.344c-0.194-2.303-0.325-4.613-0.53-6.913c-3.925-44.001-13.914-86.074-35.865-124.253
		c-6.866-11.943-15.185-22.762-25.908-30.854c-3.002,2.551-5.817,4.945-9.007,7.656c3.603,9.316,7.421,19.112,11.183,28.931
		c15.909,41.533,25.774,83.166,37.274,126.339c8.845,33.198,11.107,66.968,14.441,101.378c3.477,35.89,11.32,71.949,10.567,108.079
		c-0.014,0.617,1.802,1.234,1.694,2.232c-14.555,0.539-28.92,1.07-43.867,1.623c0.062-1.786,0.156-3.278,0.16-4.77
		c0.064-23.992,0.69-48.02,0.047-71.968c-1.134-42.238-5.887-83.997-14.382-125.169c-9.837-47.676-23.429-94.242-36.842-140.862
		c-1.535-5.335-3.073-10.669-4.72-16.388c-5.271,4.556-10.758,5.947-16.81,3.688c-6.225-2.323-7.951-7.389-7.561-13.914
		c-53.081,27.087-86.371,70.886-93.205,118.372c-0.38-3.118-0.839-6.226-1.116-9.356c-0.282-3.197-0.486-6.411-0.548-9.627
		c-0.567-29.477,8.92-52.347,28.045-75.609c14.529-17.671,35.859-29.71,49.503-37.799c4.191-2.484,8.848-4.147,14.051-6.534
		c-54.738,4.513-103.357,24.763-148.751,54.76c41.47-41.912,89.129-69.45,149.133-69.021c-9.91-1.812-19.747-4.082-29.747-5.323
		c-12.681-1.574-25.455-2.944-38.257-3.269c-21.16-0.537-41.013,5.447-59.567,16.312c-0.783,0.458-1.58,0.89-2.38,1.317
		c-0.09,0.048-0.238-0.019-0.359-0.033c10.605-13.81,35.674-32.534,65.656-35.98c26.152-3.005,50.037,2.979,72.401,15.639
		c-16.84-13.56-28.47-33.456-51.503-40.306c17.941-0.426,47.074,5.502,67.544,38.303c-0.523-6.731-1.935-14.747-1.555-22.739
		c0.395-8.287,3.698-15.958,11.511-22.146c-5.793,16.902,2.628,31.103,3.763,47.112c4.977-17.902,17.212-27.063,33.145-32.253
		c-9.136,7.194-13.863,16.343-20.342,30.707c8.595-10.54,18.973-15.793,30.828-16.539c9.558-0.601,19.301-0.072,28.726,1.283
		C297.776,49.685,314.136,56.33,330.033,63.917"/>
	<polyline clip-path="url(#SVGID_2_)" fill="#333332" points="236.47,98.955 237.915,130.277 240.324,132.206 242.252,111.483 
		244.661,112.929 247.071,145.698 253.335,155.336 255.051,124.909 255.264,121.122 267.792,180.396 268.274,173.648 
		266.348,143.29 272.129,159.673 271.166,182.322 283.213,233.403 288.515,189.551 262.491,118.23 242.252,101.363 	"/>
	<path clip-path="url(#SVGID_2_)" fill="#333332" d="M227.313,98.473l7.228,27.95l0.482-22.167c0,0,0.481-12.53-4.819-8.192"/>
	<polyline clip-path="url(#SVGID_2_)" fill="#333332" points="240.324,111.966 244.661,141.844 244.661,112.93 250.444,126.905 
		256.228,157.264 262.491,165.938 259.118,137.507 262.491,118.23 240.324,101.364 	"/>
	<polyline clip-path="url(#SVGID_2_)" fill="#333332" points="81.298,216.537 79.93,228.245 81.298,238.222 83.227,234.849 
		83.227,204.49 85.153,203.044 84.671,227.621 91.418,208.345 92.382,180.395 94.31,201.598 94.31,177.021 98.646,193.888 
		99.61,190.996 95.273,173.648 100.575,187.623 119.851,161.119 118.887,140.879 121.295,157.746 122.742,139.434 124.669,153.409 
		129.006,150.517 125.633,128.832 128.524,127.386 130.934,148.108 133.343,130.277 139.126,142.807 144.426,131.241 142.5,122.085 
		143.945,120.158 147.318,130.759 160.33,115.821 123.706,128.35 94.792,156.782 84.189,185.214 	"/>
	<polyline clip-path="url(#SVGID_2_)" fill="#333332" points="34.218,135.615 23.829,146.771 17.721,158.275 22.374,156.269 
		45.469,124.545 48.655,124.553 29.437,149.855 51.403,135.028 73.708,106.581 59.665,130.257 78.361,104.575 70.225,125.617 
		73.467,123.355 81.971,101.809 77.077,120.59 118.102,108.082 132.456,86.173 122.233,105.696 137.729,87.7 129.183,103.822 
		136.077,104.218 148.923,78.9 153.152,79.667 139.996,103.219 156.167,86.486 152.896,104.135 167.431,96.226 172.31,85.14 
		175.341,84.265 170.927,98.001 196.374,92.643 147.203,76.877 94.28,83.805 61.176,105.162 	"/>
	<polyline clip-path="url(#SVGID_2_)" fill="#333332" points="320.875,104.198 332.168,112.654 339.499,122.225 334.861,121.219 
		308.788,95.98 305.807,96.577 327.349,116.559 304.701,106.828 279.827,84.492 296.297,103.917 275.189,83.486 285.759,101.553 
		282.405,100.048 271.423,81.58 278.639,98.143 238.47,94.091 221.957,76.366 234.268,92.635 217.235,78.761 227.496,92.177 
		221.098,93.818 205.52,72.645 201.666,74.14 217.287,93.614 199.799,81.039 205.338,96.85 190.618,92.18 184.495,82.77 
		181.534,82.516 187.594,94.477 163.015,94.195 206.846,70.446 257.372,67.109 291.363,80.855 	"/>
	<polyline clip-path="url(#SVGID_2_)" fill="#333332" points="312.439,60.816 322.641,64.973 330.016,70.829 326.279,71.03 
		301.674,57.012 299.5,58.103 319.67,69.012 300.538,66.267 277.385,54.241 293.567,65.791 273.648,54.442 285.064,66.188 
		282.22,65.732 270.413,53.764 278.984,65.054 247.482,70.405 231.579,60.18 243.996,70.166 228.403,63.03 238.729,71.242 
		234.131,73.864 218.308,60.773 215.633,62.744 231.176,74.51 215.472,68.476 222.62,79.538 210.49,79.035 204.071,73.048 
		201.758,73.477 208.598,81.45 189.726,86.425 218.92,58.791 252.371,47.873 285.55,48.991 	"/>
	<polyline clip-path="url(#SVGID_2_)" fill="#333332" points="52.164,72.523 42.852,78.409 36.622,85.471 40.335,85.012 
		62.094,66.887 64.426,67.579 46.488,81.863 64.837,75.799 85.517,59.89 71.616,74.104 89.231,59.431 80.057,73 82.778,72.052 
		92.296,58.195 85.843,70.814 117.795,70.545 131.653,57.684 121.185,69.698 135.281,59.932 126.56,69.831 131.548,71.604 
		144.823,55.935 147.802,57.405 134.57,71.721 148.969,63.02 143.876,75.166 155.728,72.539 160.995,65.517 163.348,65.533 
		158.017,74.583 177.469,76.164 143.872,54.092 109.021,49.224 76.557,56.156 	"/>
	<path clip-path="url(#SVGID_2_)" fill="#A23716" d="M86.21,152.408c-0.209-0.723-0.492-2.244-0.852-4.567
		c-0.363-2.321-0.801-5.003-1.316-8.049c-0.517-3.042-1.058-6.268-1.624-9.675c-0.569-3.404-1.11-6.551-1.626-9.442
		c-3.303,0.31-7.12,0.672-11.455,1.083c-4.334,0.415-8.204,0.725-11.608,0.93c-0.31,1.343-0.62,3.122-0.93,5.34
		c-0.309,2.221-0.619,4.412-0.929,6.579c-0.31,2.166-0.594,4.156-0.85,5.96c-0.26,1.806-0.442,3.017-0.543,3.637H28.472
		c0.411-2.786,1.186-7.094,2.321-12.926c1.136-5.829,2.477-12.383,4.025-19.658s3.197-14.912,4.954-22.908
		c1.754-7.997,3.456-15.505,5.108-22.523c1.649-7.017,3.12-13.209,4.412-18.575c1.289-5.365,2.244-9.08,2.864-11.145h7.043
		c3.56,0,7.377,0.025,11.454,0.077c4.075,0.053,7.868,0.078,11.377,0.078h6.811c0.31,1.445,0.902,4.154,1.781,8.126
		c0.874,3.974,1.907,8.668,3.095,14.085c1.186,5.418,2.501,11.378,3.947,17.879c1.445,6.502,2.889,13.081,4.334,19.737
		c1.444,6.656,2.864,13.156,4.257,19.504c1.393,6.346,2.631,12.073,3.715,17.181s1.986,9.392,2.71,12.849
		c0.719,3.455,1.134,5.596,1.238,6.423H86.21z M61.908,103.184c2.577,0.104,5.209,0.182,7.894,0.232
		c2.682,0.053,5.263,0.13,7.739,0.233c-0.723-3.612-1.445-7.171-2.166-10.682c-0.725-3.506-1.42-6.834-2.091-9.983
		c-0.672-3.147-1.316-6.038-1.934-8.669c-0.62-2.631-1.137-4.823-1.548-6.578c-0.414,1.856-0.905,4.102-1.471,6.733
		c-0.569,2.631-1.214,5.522-1.935,8.669c-0.723,3.148-1.471,6.423-2.244,9.828C63.379,96.373,62.627,99.778,61.908,103.184"/>
	<path clip-path="url(#SVGID_2_)" fill="#A23716" d="M182.291,151.865c-1.281,0.093-3.36,0.161-6.239,0.206
		c-2.88,0.048-6.126,0.069-9.737,0.069c-3.613,0-7.405-0.021-11.383-0.069c-3.976-0.045-7.702-0.069-11.177-0.069
		c-3.474,0-6.537-0.021-9.187-0.068c-2.652-0.045-4.436-0.069-5.349-0.069c0.091-1.827,0.137-5.074,0.137-9.737
		c0-4.662-0.022-10.078-0.069-16.25c-0.046-6.171-0.091-12.754-0.137-19.748c-0.046-6.993-0.115-13.714-0.204-20.158
		c-0.093-6.446,0.328-42.849,0.283-48.107c-0.048-5.256-0.117-9.21-0.206-11.862h26.057c-0.093,1.097-0.23,3.04-0.412,5.828
		c-0.185,2.79-0.901,36.703-1.176,40.632c-0.273,3.932-0.595,8.275-0.96,13.028c-0.365,4.755-0.753,9.668-1.165,14.743
		c-0.411,5.074-0.802,10.147-1.166,15.221c-0.365,5.074-0.733,9.853-1.097,14.331c2.743-0.273,5.691-0.524,8.846-0.754
		c3.154-0.227,6.24-0.457,9.256-0.685c3.018-0.228,5.828-0.457,8.434-0.687c2.605-0.226,4.822-0.432,6.651-0.616V151.865z"/>
	<path clip-path="url(#SVGID_2_)" fill="#A23716" d="M66.723,159.734c6.582,0.091,12.137,1.394,16.662,3.907
		c4.525,2.516,8.181,5.921,10.971,10.217c2.788,4.299,4.82,9.325,6.102,15.085c1.279,5.761,1.92,11.932,1.92,18.514
		c0,6.583-0.823,12.778-2.469,18.582c-1.644,5.807-4.023,10.903-7.131,15.29c-3.109,4.39-6.856,7.818-11.245,10.286
		c-4.388,2.469-9.325,3.61-14.81,3.429c-6.127-0.183-11.431-1.554-15.908-4.115c-4.48-2.558-8.183-5.966-11.108-10.216
		c-2.927-4.252-5.099-9.21-6.515-14.88c-1.418-5.667-2.125-11.793-2.125-18.376c0-6.582,0.753-12.798,2.262-18.65
		c1.509-5.851,3.748-10.949,6.721-15.292c2.97-4.341,6.671-7.747,11.107-10.216C55.591,160.831,60.779,159.643,66.723,159.734
		 M66.723,234.473c2.101,0.093,4.021-0.525,5.759-1.852c1.736-1.324,3.199-3.154,4.388-5.485c1.188-2.331,2.103-5.05,2.743-8.159
		c0.639-3.107,0.96-6.446,0.96-10.012c0-3.472-0.252-6.741-0.754-9.805c-0.504-3.062-1.303-5.759-2.4-8.091
		c-1.097-2.331-2.516-4.159-4.252-5.486c-1.737-1.324-3.886-2.033-6.444-2.125c-2.286,0-4.298,0.664-6.034,1.988
		c-1.739,1.327-3.179,3.155-4.321,5.486c-1.144,2.331-2.011,5.052-2.605,8.159c-0.596,3.109-0.891,6.402-0.891,9.874
		c0,3.566,0.274,6.881,0.822,9.943c0.549,3.064,1.394,5.715,2.537,7.953c1.143,2.242,2.582,4.047,4.321,5.418
		C62.287,233.651,64.344,234.383,66.723,234.473"/>
	<path clip-path="url(#SVGID_2_)" fill="#A23716" d="M192.282,164.709c2.925,16.915,4.115,31.267,3.565,43.06
		c-0.547,11.795-2.377,21.441-5.484,28.937c-3.111,7.497-7.179,12.939-12.206,16.319c-5.029,3.384-22.786,5.074-28.82,5.074
		c-6.218,0-11.636-1.416-16.25-4.25c-4.618-2.834-8.252-7.839-10.903-15.017c-2.653-7.176-4.274-16.937-4.868-29.279
		c-0.594-12.343,0.069-28.021,1.988-47.038h23.451c0,0.184-0.116,1.372-0.343,3.566c-0.229,2.193-0.503,5.052-0.823,8.571
		c-0.322,3.52-0.618,7.52-0.891,11.999c-0.274,4.48-0.459,9.029-0.549,13.646c-0.092,4.617,0,9.142,0.275,13.575
		c0.274,4.436,0.776,8.367,1.509,11.795c0.729,3.428,1.758,6.193,3.084,8.296c1.324,2.105,3.039,3.154,5.143,3.154
		c2.102,0,16.019-1.028,17.301-3.085c1.279-2.057,2.283-4.753,3.016-8.091c0.732-3.337,1.187-7.132,1.372-11.383
		c0.182-4.252,0.227-8.615,0.137-13.096c-0.092-4.479-0.298-8.866-0.618-13.165c-0.321-4.297-0.64-8.16-0.959-11.589
		c-0.321-3.428-0.617-6.216-0.891-8.365c-0.275-2.148-0.412-3.313-0.412-3.497h5.486h6.376c2.146,0,4.228-0.021,6.239-0.068
		C189.219,164.734,190.91,164.709,192.282,164.709"/>
	<rect x="23.593" y="36.544" clip-path="url(#SVGID_2_)" fill="#A23716" width="84.151" height="24.944"/>
</g>
</svg>
